<?xml version="1.0" encoding="UTF-8" standalone="no"?>
<svg
   xmlns:dc="http://purl.org/dc/elements/1.1/"
   xmlns:cc="http://creativecommons.org/ns#"
   xmlns:rdf="http://www.w3.org/1999/02/22-rdf-syntax-ns#"
   xmlns:svg="http://www.w3.org/2000/svg"
   xmlns="http://www.w3.org/2000/svg"
   xmlns:sodipodi="http://sodipodi.sourceforge.net/DTD/sodipodi-0.dtd"
   xmlns:inkscape="http://www.inkscape.org/namespaces/inkscape"
   class="logo"
   viewBox="0 0 47 15"
   version="1.1"
   id="svg4"
   sodipodi:docname="logo.svg"
   inkscape:version="0.92.3 (2405546, 2018-03-11)">
  <metadata
     id="metadata10">
    <rdf:RDF>
      <cc:Work
         rdf:about="">
        <dc:format>image/svg+xml</dc:format>
        <dc:type
           rdf:resource="http://purl.org/dc/dcmitype/StillImage" />
        <dc:title></dc:title>
      </cc:Work>
    </rdf:RDF>
  </metadata>
  <defs
     id="defs8" />
  <sodipodi:namedview
     pagecolor="#ffffff"
     bordercolor="#666666"
     borderopacity="1"
     objecttolerance="10"
     gridtolerance="10"
     guidetolerance="10"
     inkscape:pageopacity="0"
     inkscape:pageshadow="2"
     inkscape:window-width="1920"
     inkscape:window-height="1017"
     id="namedview6"
     showgrid="false"
     inkscape:zoom="14.510638"
     inkscape:cx="24.452637"
     inkscape:cy="4.2352737"
     inkscape:window-x="-8"
     inkscape:window-y="-8"
     inkscape:window-maximized="1"
     inkscape:current-layer="svg4" />
  <path
     style="font-style:normal;font-variant:normal;font-weight:normal;font-stretch:normal;font-size:14.37382317px;line-height:125%;font-family:'Franklin Gothic Demi Cond';-inkscape-font-specification:'Franklin Gothic Demi Cond';letter-spacing:0px;word-spacing:0px;fill:#000000;fill-opacity:1;stroke:none;stroke-width:0.98003334px;stroke-linecap:butt;stroke-linejoin:miter;stroke-opacity:1"
     d="M 4.2753906 2.4550781 C 3.3812074 2.4550781 2.6609154 2.7374132 2.1152344 3.3007812 C 1.5741388 3.8593751 1.3046875 4.5785589 1.3046875 5.4570312 C 1.3046875 5.9726563 1.4191597 6.4320746 1.6484375 6.8378906 C 1.8777152 7.2389323 2.1683966 7.5499131 2.5214844 7.7695312 C 2.874572 7.9843751 3.4109272 8.2248264 4.1308594 8.4921875 C 4.6902971 8.702257 5.0472161 8.9027777 5.203125 9.09375 C 5.3590339 9.2799479 5.4375 9.4937065 5.4375 9.7324219 C 5.4375 10.047526 5.3262547 10.3023 5.1015625 10.498047 C 4.8814558 10.689018 4.5920483 10.785156 4.234375 10.785156 C 3.4502451 10.785156 2.9486223 10.2921 2.7285156 9.3085938 L 0.92578125 9.8457031 C 1.3980934 11.636068 2.4843058 12.53125 4.1855469 12.53125 C 5.1989545 12.53125 6.0067141 12.240668 6.6074219 11.658203 C 7.2127151 11.070964 7.515625 10.322049 7.515625 9.4101562 C 7.515625 8.8897569 7.4069274 8.4325088 7.1914062 8.0410156 C 6.9804707 7.6447482 6.7000647 7.3326824 6.3515625 7.1035156 C 6.0076458 6.874349 5.5330276 6.6421441 4.9277344 6.4082031 C 4.2628289 6.1408421 3.82617 5.9259983 3.6152344 5.7636719 C 3.4088844 5.5965712 3.3046875 5.3745661 3.3046875 5.0976562 C 3.3046875 4.858941 3.3921552 4.6512588 3.5664062 4.4746094 C 3.7452429 4.2931858 3.9864159 4.203125 4.2890625 4.203125 C 4.9356258 4.203125 5.3800125 4.6072048 5.6230469 5.4140625 L 7.3300781 4.7324219 C 6.9265493 3.2141925 5.9078483 2.4550781 4.2753906 2.4550781 z M 8.6152344 2.6054688 L 8.6152344 12.380859 L 10.554688 12.380859 L 10.554688 2.6054688 L 8.6152344 2.6054688 z M 18.644531 2.6054688 L 18.644531 12.380859 L 20.707031 12.380859 L 20.707031 8.5136719 L 21.740234 8.5136719 L 22.990234 12.380859 L 25.240234 12.380859 L 23.513672 8.1054688 C 24.394099 7.6089409 24.833984 6.7495661 24.833984 5.5273438 C 24.833984 5.0069443 24.745243 4.5403646 24.566406 4.125 C 24.392155 3.7048611 24.149709 3.375434 23.837891 3.1367188 C 23.526073 2.893229 23.215435 2.7439236 22.908203 2.6914062 C 22.605556 2.6341143 22.168898 2.6054688 21.595703 2.6054688 L 18.644531 2.6054688 z M 33.033203 2.6054688 L 33.033203 12.380859 L 35.501953 12.380859 C 36.17603 12.380859 36.738116 12.315321 37.1875 12.181641 C 37.636884 12.04796 38.040764 11.784071 38.398438 11.392578 C 38.756111 11.001085 39.045519 10.467014 39.265625 9.7890625 C 39.485732 9.1063367 39.595703 8.325738 39.595703 7.4472656 C 39.595703 6.2107204 39.414993 5.2296008 39.052734 4.5039062 C 38.690475 3.7782117 38.206855 3.281033 37.601562 3.0136719 C 37.000855 2.7415364 36.218826 2.6054688 35.255859 2.6054688 L 33.033203 2.6054688 z M 20.707031 4.1894531 L 21.533203 4.1894531 C 21.840435 4.1894531 22.072607 4.2263454 22.228516 4.3027344 C 22.38901 4.3743489 22.52726 4.516493 22.646484 4.7265625 C 22.765708 4.9318577 22.826172 5.1968316 22.826172 5.5214844 C 22.826172 6.4620227 22.422292 6.9316406 21.615234 6.9316406 L 20.707031 6.9316406 L 20.707031 4.1894531 z M 35.097656 4.28125 L 35.447266 4.28125 C 35.89665 4.28125 36.251021 4.3630642 36.507812 4.5253906 C 36.769189 4.6829428 36.984632 4.9867621 37.154297 5.4355469 C 37.328548 5.8843316 37.414062 6.5227864 37.414062 7.3535156 C 37.414062 8.2510852 37.337549 8.938585 37.181641 9.4160156 C 37.025731 9.8886721 36.816064 10.221137 36.554688 10.412109 C 36.293312 10.603082 35.924164 10.699219 35.447266 10.699219 L 35.097656 10.699219 L 35.097656 4.28125 z M 28.974609 4.9980469 C 28.204237 4.9980469 27.565637 5.1944444 27.056641 5.5859375 C 26.552229 5.9774306 26.257048 6.5360242 26.169922 7.2617188 L 28.005859 7.4472656 C 28.056301 6.7072482 28.328979 6.3378906 28.824219 6.3378906 C 29.094767 6.3378906 29.275476 6.4309895 29.367188 6.6171875 C 29.463484 6.8033854 29.511719 7.1369356 29.511719 7.6191406 L 29.511719 7.890625 C 28.154394 7.9765626 27.21866 8.2415365 26.705078 8.6855469 C 26.191495 9.124783 25.935547 9.7478299 25.935547 10.554688 C 25.935547 11.199219 26.104028 11.692275 26.443359 12.03125 C 26.782691 12.365451 27.22453 12.53125 27.765625 12.53125 C 28.609367 12.53125 29.243465 12.111762 29.669922 11.271484 C 29.669922 11.815756 29.701425 12.185113 29.765625 12.380859 L 31.5625 12.380859 C 31.484546 12.208985 31.445312 11.674913 31.445312 10.777344 L 31.445312 7.890625 C 31.445312 7.1697048 31.392577 6.6386719 31.287109 6.2949219 C 31.186227 5.9511718 30.937327 5.6503907 30.542969 5.3925781 C 30.148611 5.1299913 29.625759 4.9980469 28.974609 4.9980469 z M 14.509766 5.0058594 C 12.625103 5.0058594 11.683594 6.2591143 11.683594 8.765625 C 11.683594 11.27691 12.625103 12.53125 14.509766 12.53125 C 16.389844 12.53125 17.330078 11.27691 17.330078 8.765625 C 17.330078 6.2591143 16.389844 5.0058594 14.509766 5.0058594 z M 43.357422 5.0058594 C 42.481581 5.0058594 41.782519 5.3363714 41.259766 6 C 40.741598 6.6588542 40.482422 7.6174043 40.482422 8.8730469 C 40.482422 9.9854606 40.728095 10.873481 41.21875 11.537109 C 41.709404 12.200737 42.426468 12.53125 43.371094 12.53125 C 44.902668 12.53125 45.821674 11.692275 46.128906 10.011719 L 44.404297 9.8964844 C 44.330928 10.722439 43.997786 11.134766 43.40625 11.134766 C 43.131117 11.134766 42.907947 11.026259 42.738281 10.806641 C 42.568615 10.587023 42.484375 10.151259 42.484375 9.5019531 L 42.484375 9.1015625 L 46.128906 9.1015625 C 46.128906 7.5403644 45.863955 6.4691841 45.332031 5.8867188 C 44.804693 5.2994791 44.146137 5.0058594 43.357422 5.0058594 z M 43.398438 6.3378906 C 44.00373 6.3378906 44.306641 6.8033853 44.306641 7.734375 C 44.306641 7.7821181 44.305381 7.8476562 44.300781 7.9335938 L 42.498047 7.9335938 C 42.502633 6.8689234 42.802315 6.3378906 43.398438 6.3378906 z M 14.509766 6.4082031 C 14.812412 6.4082031 15.023353 6.5718316 15.142578 6.8964844 C 15.266388 7.2211372 15.328125 7.8441839 15.328125 8.765625 C 15.328125 9.653646 15.270889 10.269531 15.15625 10.613281 C 15.041611 10.952257 14.826169 11.121094 14.509766 11.121094 C 14.179606 11.121094 13.959663 10.949218 13.849609 10.605469 C 13.739556 10.261718 13.685547 9.6488713 13.685547 8.765625 C 13.685547 7.8107637 13.748557 7.1805556 13.876953 6.875 C 14.005348 6.5646701 14.21629 6.4082031 14.509766 6.4082031 z M 29.511719 8.921875 L 29.511719 9.28125 C 29.511719 10.016493 29.41525 10.521919 29.222656 10.798828 C 29.034649 11.070964 28.823707 11.207031 28.589844 11.207031 C 28.158802 11.207031 27.943359 10.902127 27.943359 10.291016 C 27.943359 9.8326824 28.062333 9.5073785 28.300781 9.3164062 C 28.543816 9.12066 28.947695 8.9887156 29.511719 8.921875 z "
     id="path4526" />
</svg>
