<?xml version="1.0" encoding="UTF-8" standalone="no"?>
<!-- Created with Inkscape (http://www.inkscape.org/) -->

<svg
   xmlns:dc="http://purl.org/dc/elements/1.1/"
   xmlns:cc="http://creativecommons.org/ns#"
   xmlns:rdf="http://www.w3.org/1999/02/22-rdf-syntax-ns#"
   xmlns:svg="http://www.w3.org/2000/svg"
   xmlns="http://www.w3.org/2000/svg"
   xmlns:sodipodi="http://sodipodi.sourceforge.net/DTD/sodipodi-0.dtd"
   xmlns:inkscape="http://www.inkscape.org/namespaces/inkscape"
   width="30cm"
   height="10cm"
   viewBox="0 0 300 100"
   version="1.1"
   id="svg4524"
   inkscape:version="0.92.3 (2405546, 2018-03-11)"
   sodipodi:docname="logo.svg">
  <defs
     id="defs4518" />
  <sodipodi:namedview
     id="base"
     pagecolor="#ffffff"
     bordercolor="#666666"
     borderopacity="1.0"
     inkscape:pageopacity="0.0"
     inkscape:pageshadow="2"
     inkscape:zoom="0.7"
     inkscape:cx="392.53369"
     inkscape:cy="208.31911"
     inkscape:document-units="mm"
     inkscape:current-layer="layer1"
     showgrid="false"
     units="cm"
     inkscape:window-width="1920"
     inkscape:window-height="1017"
     inkscape:window-x="-8"
     inkscape:window-y="-8"
     inkscape:window-maximized="1"
     inkscape:showpageshadow="false"
     showborder="false" />
  <metadata
     id="metadata4521">
    <rdf:RDF>
      <cc:Work
         rdf:about="">
        <dc:format>image/svg+xml</dc:format>
        <dc:type
           rdf:resource="http://purl.org/dc/dcmitype/StillImage" />
        <dc:title></dc:title>
      </cc:Work>
    </rdf:RDF>
  </metadata>
  <g
     inkscape:label="Layer 1"
     inkscape:groupmode="layer"
     id="layer1"
     transform="translate(0,-197)">
    <path
       style="font-style:normal;font-variant:normal;font-weight:normal;font-stretch:normal;font-size:266.66668701px;line-height:125%;font-family:'Franklin Gothic Medium Cond';-inkscape-font-specification:'Franklin Gothic Medium Cond';letter-spacing:0px;word-spacing:0px;fill:#000000;fill-opacity:1;stroke:none;stroke-width:0.50502968;stroke-linecap:butt;stroke-linejoin:miter;stroke-miterlimit:4;stroke-dasharray:none;stroke-opacity:1"
       d="M 145.5293 52.679688 C 125.95343 52.679688 110.22985 59.851237 98.359375 74.193359 C 86.593023 88.535482 80.710938 106.23589 80.710938 127.29688 C 80.710937 141.12216 83.365303 153.46094 88.675781 164.31445 C 93.986252 175.16795 100.38957 183.37373 107.88672 188.92969 C 115.48798 194.48564 127.82747 201.26836 144.9043 209.2793 C 161.04398 216.90258 171.14413 224.07413 175.20508 230.79297 C 179.26603 237.51181 181.29688 244.81166 181.29688 252.69336 C 181.29687 263.41767 178.32977 272.46326 172.39453 279.82812 C 166.56342 287.0638 157.97289 290.68164 146.62305 290.68164 C 123.40274 290.68164 109.0324 274.40035 103.51367 241.83984 L 71.962891 252.88672 C 81.334317 302.24433 105.70056 326.92383 145.06055 326.92383 C 167.86435 326.92383 185.56665 319.10687 198.16602 303.47266 C 210.86951 287.83844 217.2207 268.90937 217.2207 246.68555 C 217.2207 232.98945 214.77483 220.9734 209.88086 210.63672 C 205.09102 200.17085 198.79 191.83677 190.98047 185.63477 C 183.17095 179.43276 172.03029 172.90664 157.55664 166.05859 C 140.58394 158.04768 129.23284 151.20079 123.50586 145.51562 C 117.883 139.70125 115.07227 131.94845 115.07227 122.25781 C 115.07227 113.47165 117.57222 105.71884 122.57031 99 C 127.67254 92.15195 134.85575 88.728516 144.12305 88.728516 C 154.11923 88.728516 161.982 92.0878 167.70898 98.806641 C 173.5401 105.39627 178.22531 115.66855 181.76562 129.62305 L 211.91016 116.63672 C 202.33047 73.997953 180.20357 52.679688 145.5293 52.679688 z M 247.36523 57.525391 L 247.36523 322.07812 L 280.00977 322.07812 L 280.00977 57.525391 L 247.36523 57.525391 z M 467.28125 57.525391 L 467.28125 322.07812 L 502.58008 322.07812 L 502.58008 211.60547 L 535.69336 211.60547 L 568.96094 322.07812 L 607.22852 322.07812 L 566.77539 202.49609 C 588.53794 188.92923 599.41797 165.86522 599.41797 133.30469 C 599.41797 108.8843 593.90074 90.149638 582.86328 77.099609 C 571.82583 64.049556 554.69687 57.525391 531.47656 57.525391 L 467.28125 57.525391 z M 783.56836 57.525391 L 783.56836 322.07812 L 834.17383 322.07812 C 858.53954 322.07812 877.28234 315.87666 890.40234 303.47266 C 903.62646 291.06865 913.41388 274.78931 919.76562 254.63281 C 926.22151 234.34711 929.44922 211.28309 929.44922 185.44141 C 929.44922 160.89181 925.85663 138.53736 918.67188 118.38086 C 911.59123 98.224337 901.0741 83.043408 887.12109 72.835938 C 873.2722 62.628492 854.73789 57.525391 831.51758 57.525391 L 783.56836 57.525391 z M 502.58008 91.441406 L 529.91406 91.441406 C 553.13437 91.441406 564.74414 105.26737 564.74414 132.91797 C 564.74414 146.22644 561.88129 157.01583 556.1543 165.28516 C 550.53144 173.55451 541.6803 177.6875 529.60156 177.6875 L 502.58008 177.6875 L 502.58008 91.441406 z M 818.86719 92.605469 L 833.54883 92.605469 C 872.59644 92.605469 892.11914 125.03582 892.11914 189.89844 C 892.11914 219.35794 887.48605 242.93908 878.21875 260.64062 C 868.95145 278.21298 854.06184 286.99805 833.54883 286.99805 L 818.86719 286.99805 L 818.86719 92.605469 z M 373.25586 121.67578 C 331.60507 121.67578 310.7793 155.85188 310.7793 224.20312 C 310.7793 258.96016 316.24636 284.8022 327.17969 301.72852 C 338.21715 318.52559 353.31525 326.92383 372.47461 326.92383 C 414.12539 326.92383 434.95117 292.03815 434.95117 222.26562 C 434.95117 188.54224 429.37985 163.34563 418.23828 146.67773 C 407.20083 130.00987 392.20697 121.67578 373.25586 121.67578 z M 692.03906 121.67578 C 676.21179 121.67578 662.83178 126.52226 651.89844 136.21289 C 641.06923 145.9035 634.61379 159.46896 632.53125 176.91211 L 663.92578 181.75781 C 666.73722 161.34287 675.27562 151.13672 689.54102 151.13672 C 698.28767 151.13672 704.32615 154.68845 707.6582 161.79492 C 711.0944 168.90139 712.8125 179.43222 712.8125 193.38672 L 712.8125 201.33398 C 709.6887 201.20472 707.3992 201.14062 705.94141 201.14062 C 676.78585 201.14062 656.27281 207.34211 644.40234 219.74609 C 632.63599 232.1501 626.75195 249.0107 626.75195 270.33008 C 626.75195 287.77323 630.76151 301.59919 638.7793 311.80664 C 646.9012 321.8849 657.62487 326.92383 670.95312 326.92383 C 690.63312 326.92383 705.42044 314.4548 715.3125 289.51758 C 715.3125 304.11815 715.98815 314.97168 717.3418 322.07812 L 748.11133 322.07812 C 746.23704 313.03354 745.30078 295.01041 745.30078 268.00586 L 745.30078 201.33398 C 745.30078 181.69432 744.20814 167.02852 742.02148 157.33789 C 739.83483 147.64726 734.472 139.31317 725.93359 132.33594 C 717.4993 125.22947 706.20035 121.67578 692.03906 121.67578 z M 1017.3848 121.67578 C 998.22541 121.67578 982.91883 130.84968 971.46484 149.19727 C 960.01088 167.54486 954.2832 193.51715 954.2832 227.11133 C 954.2832 259.80104 959.95875 284.60884 971.30859 301.53516 C 982.65844 318.46144 997.8608 326.92383 1016.916 326.92383 C 1048.05 326.92383 1067.5225 306.18682 1075.332 264.71094 L 1045.6543 259.86523 C 1041.8016 284.28562 1032.5876 296.49609 1018.0098 296.49609 C 1009.2631 296.49609 1001.9737 292.10257 996.14258 283.31641 C 990.41559 274.401 987.55273 256.69865 987.55273 230.21094 L 1076.7363 230.21094 C 1076.424 206.04897 1074.3931 186.53865 1070.6445 171.67969 C 1066.8959 156.69152 1060.4405 144.6113 1051.2773 135.4375 C 1042.1142 126.2637 1030.8171 121.67578 1017.3848 121.67578 z M 1016.291 151.13672 C 1034.4091 151.13672 1043.4688 168.38612 1043.4688 202.88477 L 988.33398 202.88477 C 990 168.38612 999.31832 151.13672 1016.291 151.13672 z M 372.94336 152.10547 C 381.37764 152.10547 388.04156 157.27269 392.93555 167.60938 C 397.93362 177.81682 400.43164 196.68171 400.43164 224.20312 C 400.43164 248.36507 398.24636 266.4543 393.87305 278.4707 C 389.60384 290.35787 382.62717 296.30078 372.94336 296.30078 C 363.15543 296.30078 356.12664 290.42202 351.85742 278.66406 C 347.58822 266.9061 345.45312 248.75272 345.45312 224.20312 C 345.45313 176.13759 354.61701 152.10547 372.94336 152.10547 z M 703.28516 225.94727 C 705.47184 225.94727 708.64744 226.20582 712.8125 226.72266 L 712.8125 236.21875 C 712.8125 255.21239 709.68902 270.13674 703.44141 280.99023 C 697.29791 291.84375 690.11276 297.27148 681.88672 297.27148 C 667.8296 297.27148 660.80078 287.25778 660.80078 267.23047 C 660.80078 239.70908 674.96264 225.94727 703.28516 225.94727 z "
       transform="matrix(0.26458333,0,0,0.26458333,0,197)"
       id="path824" />
    <flowRoot
       xml:space="preserve"
       id="flowRoot5077"
       style="fill:black;stroke:none;stroke-opacity:1;stroke-width:1px;stroke-linejoin:miter;stroke-linecap:butt;fill-opacity:1;font-family:sans-serif;font-style:normal;font-weight:normal;font-size:40px;line-height:125%;letter-spacing:0px;word-spacing:0px"><flowRegion
         id="flowRegion5079"><rect
           id="rect5081"
           width="0"
           height="101.42857"
           x="132.85715"
           y="70.809898" /></flowRegion><flowPara
         id="flowPara5083" /></flowRoot>    <flowRoot
       xml:space="preserve"
       id="flowRoot5085"
       style="fill:black;stroke:none;stroke-opacity:1;stroke-width:1px;stroke-linejoin:miter;stroke-linecap:butt;fill-opacity:1;font-family:sans-serif;font-style:normal;font-weight:normal;font-size:40px;line-height:125%;letter-spacing:0px;word-spacing:0px"><flowRegion
         id="flowRegion5087"><rect
           id="rect5089"
           width="4.2857141"
           height="90"
           x="120"
           y="169.38133" /></flowRegion><flowPara
         id="flowPara5091" /></flowRoot>  </g>
</svg>
